<mxfile host="Electron" modified="2025-04-05T11:02:39.013Z" agent="Mozilla/5.0 (Windows NT 10.0; Win64; x64) AppleWebKit/537.36 (KHTML, like Gecko) draw.io/21.2.8 Chrome/112.0.5615.165 Electron/24.2.0 Safari/537.36" etag="DNX2xQlCPBhRbNcrUrdD" version="21.2.8" type="device">
  <diagram name="第 1 页" id="aWi3_Wjg7QgKHD42ETOd">
    <mxGraphModel dx="810" dy="3769" grid="1" gridSize="10" guides="1" tooltips="1" connect="1" arrows="1" fold="1" page="1" pageScale="1" pageWidth="2339" pageHeight="3300" math="0" shadow="0">
      <root>
        <mxCell id="0" />
        <mxCell id="1" parent="0" />
        <mxCell id="lfQJAR2KCbR_IpYdrGAc-33" value="" style="rounded=0;whiteSpace=wrap;html=1;fillColor=#fff2cc;strokeColor=#d6b656;" vertex="1" parent="1">
          <mxGeometry x="270" y="-600" width="360" height="420" as="geometry" />
        </mxCell>
        <mxCell id="UhhKQWs8nvBIN2-aA_jv-6" style="edgeStyle=orthogonalEdgeStyle;rounded=0;orthogonalLoop=1;jettySize=auto;html=1;entryX=0;entryY=0.5;entryDx=0;entryDy=0;" parent="1" source="UhhKQWs8nvBIN2-aA_jv-5" target="UhhKQWs8nvBIN2-aA_jv-11" edge="1">
          <mxGeometry relative="1" as="geometry">
            <mxPoint x="390" y="70" as="targetPoint" />
          </mxGeometry>
        </mxCell>
        <mxCell id="UhhKQWs8nvBIN2-aA_jv-58" style="edgeStyle=orthogonalEdgeStyle;rounded=0;orthogonalLoop=1;jettySize=auto;html=1;" parent="1" source="UhhKQWs8nvBIN2-aA_jv-5" target="UhhKQWs8nvBIN2-aA_jv-57" edge="1">
          <mxGeometry relative="1" as="geometry" />
        </mxCell>
        <mxCell id="UhhKQWs8nvBIN2-aA_jv-5" value="memblock" style="ellipse;whiteSpace=wrap;html=1;" parent="1" vertex="1">
          <mxGeometry x="130" y="50" width="120" height="80" as="geometry" />
        </mxCell>
        <mxCell id="UhhKQWs8nvBIN2-aA_jv-14" style="edgeStyle=orthogonalEdgeStyle;rounded=0;orthogonalLoop=1;jettySize=auto;html=1;entryX=0;entryY=0.5;entryDx=0;entryDy=0;" parent="1" source="UhhKQWs8nvBIN2-aA_jv-10" target="UhhKQWs8nvBIN2-aA_jv-13" edge="1">
          <mxGeometry relative="1" as="geometry" />
        </mxCell>
        <mxCell id="UhhKQWs8nvBIN2-aA_jv-10" value="__free_pages_ok&lt;br&gt;确定页面的类型，关闭本地中断" style="rounded=0;whiteSpace=wrap;html=1;" parent="1" vertex="1">
          <mxGeometry x="590" y="180" width="180" height="60" as="geometry" />
        </mxCell>
        <mxCell id="UhhKQWs8nvBIN2-aA_jv-12" style="edgeStyle=orthogonalEdgeStyle;rounded=0;orthogonalLoop=1;jettySize=auto;html=1;entryX=0;entryY=0.5;entryDx=0;entryDy=0;" parent="1" source="UhhKQWs8nvBIN2-aA_jv-11" target="UhhKQWs8nvBIN2-aA_jv-10" edge="1">
          <mxGeometry relative="1" as="geometry" />
        </mxCell>
        <mxCell id="UhhKQWs8nvBIN2-aA_jv-11" value="__free_pages_memory&lt;br&gt;将free区域的物理内存交给page allocator" style="rounded=0;whiteSpace=wrap;html=1;" parent="1" vertex="1">
          <mxGeometry x="370" y="180" width="140" height="60" as="geometry" />
        </mxCell>
        <mxCell id="UhhKQWs8nvBIN2-aA_jv-13" value="__free_one_page&lt;br&gt;buddy system算法的主要实现代码，会合并buddy，将page 添加到对应的free_area链表" style="rounded=0;whiteSpace=wrap;html=1;" parent="1" vertex="1">
          <mxGeometry x="830" y="180" width="220" height="60" as="geometry" />
        </mxCell>
        <mxCell id="UhhKQWs8nvBIN2-aA_jv-17" style="edgeStyle=orthogonalEdgeStyle;rounded=0;orthogonalLoop=1;jettySize=auto;html=1;" parent="1" source="UhhKQWs8nvBIN2-aA_jv-15" target="UhhKQWs8nvBIN2-aA_jv-16" edge="1">
          <mxGeometry relative="1" as="geometry" />
        </mxCell>
        <mxCell id="UhhKQWs8nvBIN2-aA_jv-15" value="申请page" style="ellipse;whiteSpace=wrap;html=1;" parent="1" vertex="1">
          <mxGeometry x="200" y="460" width="120" height="80" as="geometry" />
        </mxCell>
        <mxCell id="UhhKQWs8nvBIN2-aA_jv-19" style="edgeStyle=orthogonalEdgeStyle;rounded=0;orthogonalLoop=1;jettySize=auto;html=1;entryX=0;entryY=0.5;entryDx=0;entryDy=0;" parent="1" source="UhhKQWs8nvBIN2-aA_jv-16" target="UhhKQWs8nvBIN2-aA_jv-18" edge="1">
          <mxGeometry relative="1" as="geometry" />
        </mxCell>
        <mxCell id="UhhKQWs8nvBIN2-aA_jv-22" style="edgeStyle=orthogonalEdgeStyle;rounded=0;orthogonalLoop=1;jettySize=auto;html=1;entryX=0;entryY=0.5;entryDx=0;entryDy=0;" parent="1" source="UhhKQWs8nvBIN2-aA_jv-16" target="UhhKQWs8nvBIN2-aA_jv-20" edge="1">
          <mxGeometry relative="1" as="geometry" />
        </mxCell>
        <mxCell id="UhhKQWs8nvBIN2-aA_jv-23" style="edgeStyle=orthogonalEdgeStyle;rounded=0;orthogonalLoop=1;jettySize=auto;html=1;entryX=0;entryY=0.5;entryDx=0;entryDy=0;" parent="1" source="UhhKQWs8nvBIN2-aA_jv-16" target="UhhKQWs8nvBIN2-aA_jv-21" edge="1">
          <mxGeometry relative="1" as="geometry">
            <Array as="points">
              <mxPoint x="570" y="500" />
              <mxPoint x="570" y="760" />
            </Array>
          </mxGeometry>
        </mxCell>
        <mxCell id="UhhKQWs8nvBIN2-aA_jv-16" value="__alloc_pages_nodemask" style="rounded=0;whiteSpace=wrap;html=1;" parent="1" vertex="1">
          <mxGeometry x="380" y="470" width="160" height="60" as="geometry" />
        </mxCell>
        <mxCell id="UhhKQWs8nvBIN2-aA_jv-18" value="prepare_alloc_pages&lt;br&gt;确定申请的type、zone" style="rounded=0;whiteSpace=wrap;html=1;" parent="1" vertex="1">
          <mxGeometry x="600" y="360" width="150" height="60" as="geometry" />
        </mxCell>
        <mxCell id="UhhKQWs8nvBIN2-aA_jv-25" style="edgeStyle=orthogonalEdgeStyle;rounded=0;orthogonalLoop=1;jettySize=auto;html=1;entryX=0;entryY=0.5;entryDx=0;entryDy=0;" parent="1" source="UhhKQWs8nvBIN2-aA_jv-20" target="UhhKQWs8nvBIN2-aA_jv-24" edge="1">
          <mxGeometry relative="1" as="geometry" />
        </mxCell>
        <mxCell id="UhhKQWs8nvBIN2-aA_jv-20" value="get_page_from_freelist&lt;br&gt;找到合适的zone，然后申请page" style="rounded=0;whiteSpace=wrap;html=1;" parent="1" vertex="1">
          <mxGeometry x="600" y="470" width="150" height="60" as="geometry" />
        </mxCell>
        <mxCell id="UhhKQWs8nvBIN2-aA_jv-48" style="edgeStyle=orthogonalEdgeStyle;rounded=0;orthogonalLoop=1;jettySize=auto;html=1;entryX=0;entryY=0.5;entryDx=0;entryDy=0;" parent="1" source="UhhKQWs8nvBIN2-aA_jv-21" target="UhhKQWs8nvBIN2-aA_jv-45" edge="1">
          <mxGeometry relative="1" as="geometry" />
        </mxCell>
        <mxCell id="UhhKQWs8nvBIN2-aA_jv-49" style="edgeStyle=orthogonalEdgeStyle;rounded=0;orthogonalLoop=1;jettySize=auto;html=1;entryX=0;entryY=0.5;entryDx=0;entryDy=0;" parent="1" source="UhhKQWs8nvBIN2-aA_jv-21" target="UhhKQWs8nvBIN2-aA_jv-46" edge="1">
          <mxGeometry relative="1" as="geometry" />
        </mxCell>
        <mxCell id="UhhKQWs8nvBIN2-aA_jv-50" style="edgeStyle=orthogonalEdgeStyle;rounded=0;orthogonalLoop=1;jettySize=auto;html=1;entryX=0;entryY=0.5;entryDx=0;entryDy=0;" parent="1" source="UhhKQWs8nvBIN2-aA_jv-21" target="UhhKQWs8nvBIN2-aA_jv-47" edge="1">
          <mxGeometry relative="1" as="geometry" />
        </mxCell>
        <mxCell id="UhhKQWs8nvBIN2-aA_jv-54" style="edgeStyle=orthogonalEdgeStyle;rounded=0;orthogonalLoop=1;jettySize=auto;html=1;entryX=0;entryY=0.5;entryDx=0;entryDy=0;" parent="1" source="UhhKQWs8nvBIN2-aA_jv-21" target="UhhKQWs8nvBIN2-aA_jv-53" edge="1">
          <mxGeometry relative="1" as="geometry" />
        </mxCell>
        <mxCell id="lfQJAR2KCbR_IpYdrGAc-42" style="edgeStyle=orthogonalEdgeStyle;rounded=0;orthogonalLoop=1;jettySize=auto;html=1;entryX=0;entryY=0.5;entryDx=0;entryDy=0;" edge="1" parent="1" source="UhhKQWs8nvBIN2-aA_jv-21" target="lfQJAR2KCbR_IpYdrGAc-41">
          <mxGeometry relative="1" as="geometry" />
        </mxCell>
        <mxCell id="UhhKQWs8nvBIN2-aA_jv-21" value="__alloc_pages_slowpath&lt;br&gt;若free area没有page可以申请，会通过内存规整，内存回收等方式回收内存" style="rounded=0;whiteSpace=wrap;html=1;" parent="1" vertex="1">
          <mxGeometry x="590" y="730" width="150" height="60" as="geometry" />
        </mxCell>
        <mxCell id="UhhKQWs8nvBIN2-aA_jv-27" style="edgeStyle=orthogonalEdgeStyle;rounded=0;orthogonalLoop=1;jettySize=auto;html=1;entryX=0;entryY=0.5;entryDx=0;entryDy=0;" parent="1" source="UhhKQWs8nvBIN2-aA_jv-24" target="UhhKQWs8nvBIN2-aA_jv-26" edge="1">
          <mxGeometry relative="1" as="geometry" />
        </mxCell>
        <mxCell id="UhhKQWs8nvBIN2-aA_jv-42" style="edgeStyle=orthogonalEdgeStyle;rounded=0;orthogonalLoop=1;jettySize=auto;html=1;entryX=0;entryY=0.5;entryDx=0;entryDy=0;" parent="1" source="UhhKQWs8nvBIN2-aA_jv-24" target="UhhKQWs8nvBIN2-aA_jv-41" edge="1">
          <mxGeometry relative="1" as="geometry" />
        </mxCell>
        <mxCell id="UhhKQWs8nvBIN2-aA_jv-24" value="rmqueue&lt;br&gt;在zone对应类型的free_list中申请page，需要关闭本地中断以及加zone lock" style="rounded=0;whiteSpace=wrap;html=1;" parent="1" vertex="1">
          <mxGeometry x="820" y="470" width="170" height="60" as="geometry" />
        </mxCell>
        <mxCell id="UhhKQWs8nvBIN2-aA_jv-26" value="rmqueue_pcplist&lt;br&gt;如果申请1个page，则从per cpu page 快速申请" style="rounded=0;whiteSpace=wrap;html=1;" parent="1" vertex="1">
          <mxGeometry x="1090" y="390" width="190" height="60" as="geometry" />
        </mxCell>
        <mxCell id="UhhKQWs8nvBIN2-aA_jv-28" value="__rmqueue_smallest&lt;br&gt;遍历free_area链表，找到合适的pageblock" style="rounded=0;whiteSpace=wrap;html=1;" parent="1" vertex="1">
          <mxGeometry x="1270" y="470" width="120" height="60" as="geometry" />
        </mxCell>
        <mxCell id="UhhKQWs8nvBIN2-aA_jv-30" value="" style="rounded=0;whiteSpace=wrap;html=1;fillColor=#d5e8d4;strokeColor=#82b366;" parent="1" vertex="1">
          <mxGeometry x="320" y="-550" width="310" height="340" as="geometry" />
        </mxCell>
        <mxCell id="UhhKQWs8nvBIN2-aA_jv-32" value="zone：描述一块特定类型的物理地址，NORMAL" style="text;html=1;strokeColor=none;fillColor=none;align=center;verticalAlign=middle;whiteSpace=wrap;rounded=0;" parent="1" vertex="1">
          <mxGeometry x="320" y="-550" width="210" height="30" as="geometry" />
        </mxCell>
        <mxCell id="UhhKQWs8nvBIN2-aA_jv-33" value="" style="rounded=0;whiteSpace=wrap;html=1;fillColor=#dae8fc;strokeColor=#6c8ebf;" parent="1" vertex="1">
          <mxGeometry x="360" y="-520" width="270" height="310" as="geometry" />
        </mxCell>
        <mxCell id="UhhKQWs8nvBIN2-aA_jv-40" value="__rmqueue_fallback&lt;br&gt;检查能否从其他类型的page中申请" style="rounded=0;whiteSpace=wrap;html=1;" parent="1" vertex="1">
          <mxGeometry x="1510" y="600" width="120" height="60" as="geometry" />
        </mxCell>
        <mxCell id="UhhKQWs8nvBIN2-aA_jv-43" style="edgeStyle=orthogonalEdgeStyle;rounded=0;orthogonalLoop=1;jettySize=auto;html=1;entryX=0;entryY=0.5;entryDx=0;entryDy=0;" parent="1" source="UhhKQWs8nvBIN2-aA_jv-41" target="UhhKQWs8nvBIN2-aA_jv-28" edge="1">
          <mxGeometry relative="1" as="geometry" />
        </mxCell>
        <mxCell id="lfQJAR2KCbR_IpYdrGAc-38" style="edgeStyle=orthogonalEdgeStyle;rounded=0;orthogonalLoop=1;jettySize=auto;html=1;entryX=0;entryY=0.5;entryDx=0;entryDy=0;" edge="1" parent="1" source="UhhKQWs8nvBIN2-aA_jv-41" target="lfQJAR2KCbR_IpYdrGAc-37">
          <mxGeometry relative="1" as="geometry" />
        </mxCell>
        <mxCell id="UhhKQWs8nvBIN2-aA_jv-41" value="__rmqueue" style="rounded=0;whiteSpace=wrap;html=1;" parent="1" vertex="1">
          <mxGeometry x="1090" y="550" width="120" height="60" as="geometry" />
        </mxCell>
        <mxCell id="UhhKQWs8nvBIN2-aA_jv-52" style="edgeStyle=orthogonalEdgeStyle;rounded=0;orthogonalLoop=1;jettySize=auto;html=1;entryX=0;entryY=0.5;entryDx=0;entryDy=0;" parent="1" source="UhhKQWs8nvBIN2-aA_jv-45" target="UhhKQWs8nvBIN2-aA_jv-51" edge="1">
          <mxGeometry relative="1" as="geometry" />
        </mxCell>
        <mxCell id="UhhKQWs8nvBIN2-aA_jv-45" value="__alloc_pages_direct_compact&lt;br&gt;内存规整：将MOVABLE的page迁移，凑出一块连续内存" style="rounded=0;whiteSpace=wrap;html=1;" parent="1" vertex="1">
          <mxGeometry x="820" y="720" width="200" height="80" as="geometry" />
        </mxCell>
        <mxCell id="UhhKQWs8nvBIN2-aA_jv-46" value="wakeup kswap线程&lt;br&gt;进行异步内存回收" style="rounded=0;whiteSpace=wrap;html=1;" parent="1" vertex="1">
          <mxGeometry x="820" y="850" width="120" height="60" as="geometry" />
        </mxCell>
        <mxCell id="UhhKQWs8nvBIN2-aA_jv-56" style="edgeStyle=orthogonalEdgeStyle;rounded=0;orthogonalLoop=1;jettySize=auto;html=1;entryX=0;entryY=0.5;entryDx=0;entryDy=0;" parent="1" source="UhhKQWs8nvBIN2-aA_jv-47" target="UhhKQWs8nvBIN2-aA_jv-55" edge="1">
          <mxGeometry relative="1" as="geometry" />
        </mxCell>
        <mxCell id="UhhKQWs8nvBIN2-aA_jv-47" value="__alloc_pages_may_oom" style="rounded=0;whiteSpace=wrap;html=1;" parent="1" vertex="1">
          <mxGeometry x="820" y="1140" width="170" height="60" as="geometry" />
        </mxCell>
        <mxCell id="UhhKQWs8nvBIN2-aA_jv-51" value="try_to_compact_pages&lt;br&gt;内存规整算法，实现在另一个源文件" style="rounded=0;whiteSpace=wrap;html=1;" parent="1" vertex="1">
          <mxGeometry x="1090" y="730" width="150" height="60" as="geometry" />
        </mxCell>
        <mxCell id="UhhKQWs8nvBIN2-aA_jv-53" value="__alloc_pages_direct_reclaim&lt;br&gt;进行直接的内存回收" style="rounded=0;whiteSpace=wrap;html=1;" parent="1" vertex="1">
          <mxGeometry x="820" y="940" width="190" height="70" as="geometry" />
        </mxCell>
        <mxCell id="UhhKQWs8nvBIN2-aA_jv-55" value="out_of_memory" style="rounded=0;whiteSpace=wrap;html=1;" parent="1" vertex="1">
          <mxGeometry x="1070" y="1140" width="120" height="60" as="geometry" />
        </mxCell>
        <mxCell id="UhhKQWs8nvBIN2-aA_jv-60" style="edgeStyle=orthogonalEdgeStyle;rounded=0;orthogonalLoop=1;jettySize=auto;html=1;" parent="1" source="UhhKQWs8nvBIN2-aA_jv-57" target="UhhKQWs8nvBIN2-aA_jv-59" edge="1">
          <mxGeometry relative="1" as="geometry" />
        </mxCell>
        <mxCell id="UhhKQWs8nvBIN2-aA_jv-62" style="edgeStyle=orthogonalEdgeStyle;rounded=0;orthogonalLoop=1;jettySize=auto;html=1;entryX=0;entryY=0.5;entryDx=0;entryDy=0;" parent="1" source="UhhKQWs8nvBIN2-aA_jv-57" target="UhhKQWs8nvBIN2-aA_jv-61" edge="1">
          <mxGeometry relative="1" as="geometry" />
        </mxCell>
        <mxCell id="UhhKQWs8nvBIN2-aA_jv-57" value="free_area_init&lt;br&gt;初始化zone相关数据" style="rounded=0;whiteSpace=wrap;html=1;" parent="1" vertex="1">
          <mxGeometry x="380" y="60" width="120" height="60" as="geometry" />
        </mxCell>
        <mxCell id="UhhKQWs8nvBIN2-aA_jv-59" value="memmap_init&lt;br&gt;初始化memmap数组里的每个page，并将page 设置为MOVABLE" style="rounded=0;whiteSpace=wrap;html=1;" parent="1" vertex="1">
          <mxGeometry x="580" y="60" width="150" height="60" as="geometry" />
        </mxCell>
        <mxCell id="UhhKQWs8nvBIN2-aA_jv-65" style="edgeStyle=orthogonalEdgeStyle;rounded=0;orthogonalLoop=1;jettySize=auto;html=1;entryX=0;entryY=0.5;entryDx=0;entryDy=0;" parent="1" source="UhhKQWs8nvBIN2-aA_jv-61" target="UhhKQWs8nvBIN2-aA_jv-63" edge="1">
          <mxGeometry relative="1" as="geometry" />
        </mxCell>
        <mxCell id="UhhKQWs8nvBIN2-aA_jv-61" value="free_area_init_node&lt;br&gt;初始化zone对象" style="rounded=0;whiteSpace=wrap;html=1;" parent="1" vertex="1">
          <mxGeometry x="580" y="-40" width="120" height="60" as="geometry" />
        </mxCell>
        <mxCell id="UhhKQWs8nvBIN2-aA_jv-63" value="alloc_node_mem_map&lt;br&gt;通过memblock系统申请memmap数组" style="rounded=0;whiteSpace=wrap;html=1;" parent="1" vertex="1">
          <mxGeometry x="760" y="-40" width="160" height="60" as="geometry" />
        </mxCell>
        <mxCell id="UhhKQWs8nvBIN2-aA_jv-68" style="edgeStyle=orthogonalEdgeStyle;rounded=0;orthogonalLoop=1;jettySize=auto;html=1;" parent="1" source="UhhKQWs8nvBIN2-aA_jv-66" target="UhhKQWs8nvBIN2-aA_jv-67" edge="1">
          <mxGeometry relative="1" as="geometry" />
        </mxCell>
        <mxCell id="UhhKQWs8nvBIN2-aA_jv-66" value="释放page" style="ellipse;whiteSpace=wrap;html=1;" parent="1" vertex="1">
          <mxGeometry x="190" y="1390" width="120" height="80" as="geometry" />
        </mxCell>
        <mxCell id="UhhKQWs8nvBIN2-aA_jv-70" style="edgeStyle=orthogonalEdgeStyle;rounded=0;orthogonalLoop=1;jettySize=auto;html=1;entryX=0;entryY=0.5;entryDx=0;entryDy=0;" parent="1" source="UhhKQWs8nvBIN2-aA_jv-67" target="UhhKQWs8nvBIN2-aA_jv-69" edge="1">
          <mxGeometry relative="1" as="geometry" />
        </mxCell>
        <mxCell id="UhhKQWs8nvBIN2-aA_jv-72" style="edgeStyle=orthogonalEdgeStyle;rounded=0;orthogonalLoop=1;jettySize=auto;html=1;entryX=0;entryY=0.5;entryDx=0;entryDy=0;" parent="1" source="UhhKQWs8nvBIN2-aA_jv-67" target="UhhKQWs8nvBIN2-aA_jv-71" edge="1">
          <mxGeometry relative="1" as="geometry" />
        </mxCell>
        <mxCell id="UhhKQWs8nvBIN2-aA_jv-67" value="free_pages&lt;br&gt;释放指定地址和order的page" style="rounded=0;whiteSpace=wrap;html=1;" parent="1" vertex="1">
          <mxGeometry x="395" y="1400" width="120" height="60" as="geometry" />
        </mxCell>
        <mxCell id="UhhKQWs8nvBIN2-aA_jv-69" value="free_unref_page&lt;br&gt;释放 1个page到per cpu page" style="rounded=0;whiteSpace=wrap;html=1;" parent="1" vertex="1">
          <mxGeometry x="595" y="1400" width="120" height="60" as="geometry" />
        </mxCell>
        <mxCell id="UhhKQWs8nvBIN2-aA_jv-71" value="__free_pages_ok" style="rounded=0;whiteSpace=wrap;html=1;" parent="1" vertex="1">
          <mxGeometry x="595" y="1510" width="120" height="60" as="geometry" />
        </mxCell>
        <mxCell id="lfQJAR2KCbR_IpYdrGAc-2" value="free_area" style="text;html=1;strokeColor=none;fillColor=none;align=center;verticalAlign=middle;whiteSpace=wrap;rounded=0;" vertex="1" parent="1">
          <mxGeometry x="360" y="-520" width="60" height="30" as="geometry" />
        </mxCell>
        <mxCell id="lfQJAR2KCbR_IpYdrGAc-3" value="" style="rounded=0;whiteSpace=wrap;html=1;fillColor=#d5e8d4;strokeColor=#82b366;" vertex="1" parent="1">
          <mxGeometry x="390" y="-490" width="240" height="120" as="geometry" />
        </mxCell>
        <mxCell id="lfQJAR2KCbR_IpYdrGAc-4" value="" style="rounded=0;whiteSpace=wrap;html=1;" vertex="1" parent="1">
          <mxGeometry x="390" y="-370" width="240" height="130" as="geometry" />
        </mxCell>
        <mxCell id="lfQJAR2KCbR_IpYdrGAc-5" value="" style="rounded=0;whiteSpace=wrap;html=1;" vertex="1" parent="1">
          <mxGeometry x="390" y="-240" width="240" height="30" as="geometry" />
        </mxCell>
        <mxCell id="lfQJAR2KCbR_IpYdrGAc-7" value="" style="endArrow=none;dashed=1;html=1;dashPattern=1 3;strokeWidth=2;rounded=0;" edge="1" parent="1">
          <mxGeometry width="50" height="50" relative="1" as="geometry">
            <mxPoint x="470" y="-230.24" as="sourcePoint" />
            <mxPoint x="530" y="-230.24" as="targetPoint" />
          </mxGeometry>
        </mxCell>
        <mxCell id="lfQJAR2KCbR_IpYdrGAc-8" value="" style="rounded=0;whiteSpace=wrap;html=1;" vertex="1" parent="1">
          <mxGeometry x="415" y="-470" width="215" height="100" as="geometry" />
        </mxCell>
        <mxCell id="lfQJAR2KCbR_IpYdrGAc-9" value="free_list, order = 0" style="text;html=1;strokeColor=none;fillColor=none;align=center;verticalAlign=middle;whiteSpace=wrap;rounded=0;" vertex="1" parent="1">
          <mxGeometry x="390" y="-490" width="110" height="20" as="geometry" />
        </mxCell>
        <mxCell id="lfQJAR2KCbR_IpYdrGAc-24" style="edgeStyle=orthogonalEdgeStyle;rounded=0;orthogonalLoop=1;jettySize=auto;html=1;entryX=0;entryY=0.5;entryDx=0;entryDy=0;" edge="1" parent="1" source="lfQJAR2KCbR_IpYdrGAc-10" target="lfQJAR2KCbR_IpYdrGAc-19">
          <mxGeometry relative="1" as="geometry" />
        </mxCell>
        <mxCell id="lfQJAR2KCbR_IpYdrGAc-10" value="MIGRATE_UNMOVABLE" style="rounded=0;whiteSpace=wrap;html=1;fillColor=#e1d5e7;strokeColor=#9673a6;" vertex="1" parent="1">
          <mxGeometry x="415" y="-470" width="215" height="30" as="geometry" />
        </mxCell>
        <mxCell id="lfQJAR2KCbR_IpYdrGAc-11" value="MIGRATE_MOVABLE" style="rounded=0;whiteSpace=wrap;html=1;fillColor=#e1d5e7;strokeColor=#9673a6;" vertex="1" parent="1">
          <mxGeometry x="415" y="-440" width="215" height="30" as="geometry" />
        </mxCell>
        <mxCell id="lfQJAR2KCbR_IpYdrGAc-12" value="MIGRATE_RECLAIMABLE" style="rounded=0;whiteSpace=wrap;html=1;fillColor=#e1d5e7;strokeColor=#9673a6;" vertex="1" parent="1">
          <mxGeometry x="415" y="-410" width="215" height="30" as="geometry" />
        </mxCell>
        <mxCell id="lfQJAR2KCbR_IpYdrGAc-13" value="free_list, order = 1" style="text;html=1;strokeColor=none;fillColor=none;align=center;verticalAlign=middle;whiteSpace=wrap;rounded=0;" vertex="1" parent="1">
          <mxGeometry x="390" y="-370" width="110" height="20" as="geometry" />
        </mxCell>
        <mxCell id="lfQJAR2KCbR_IpYdrGAc-14" value="" style="rounded=0;whiteSpace=wrap;html=1;" vertex="1" parent="1">
          <mxGeometry x="415" y="-350" width="215" height="110" as="geometry" />
        </mxCell>
        <mxCell id="lfQJAR2KCbR_IpYdrGAc-30" style="edgeStyle=orthogonalEdgeStyle;rounded=0;orthogonalLoop=1;jettySize=auto;html=1;entryX=-0.033;entryY=0.512;entryDx=0;entryDy=0;entryPerimeter=0;" edge="1" parent="1" source="lfQJAR2KCbR_IpYdrGAc-15" target="lfQJAR2KCbR_IpYdrGAc-26">
          <mxGeometry relative="1" as="geometry" />
        </mxCell>
        <mxCell id="lfQJAR2KCbR_IpYdrGAc-15" value="MIGRATE_UNMOVABLE" style="rounded=0;whiteSpace=wrap;html=1;" vertex="1" parent="1">
          <mxGeometry x="415" y="-350" width="215" height="30" as="geometry" />
        </mxCell>
        <mxCell id="lfQJAR2KCbR_IpYdrGAc-16" value="MIGRATE_MOVABLE" style="rounded=0;whiteSpace=wrap;html=1;" vertex="1" parent="1">
          <mxGeometry x="415" y="-320" width="215" height="30" as="geometry" />
        </mxCell>
        <mxCell id="lfQJAR2KCbR_IpYdrGAc-17" value="MIGRATE_RECLAIMABLE" style="rounded=0;whiteSpace=wrap;html=1;" vertex="1" parent="1">
          <mxGeometry x="415" y="-290" width="215" height="30" as="geometry" />
        </mxCell>
        <mxCell id="lfQJAR2KCbR_IpYdrGAc-18" value="" style="endArrow=none;dashed=1;html=1;dashPattern=1 3;strokeWidth=2;rounded=0;" edge="1" parent="1">
          <mxGeometry width="50" height="50" relative="1" as="geometry">
            <mxPoint x="480" y="-250" as="sourcePoint" />
            <mxPoint x="540" y="-250" as="targetPoint" />
          </mxGeometry>
        </mxCell>
        <mxCell id="lfQJAR2KCbR_IpYdrGAc-21" style="edgeStyle=orthogonalEdgeStyle;rounded=0;orthogonalLoop=1;jettySize=auto;html=1;entryX=0;entryY=0.5;entryDx=0;entryDy=0;" edge="1" parent="1" source="lfQJAR2KCbR_IpYdrGAc-19" target="lfQJAR2KCbR_IpYdrGAc-20">
          <mxGeometry relative="1" as="geometry" />
        </mxCell>
        <mxCell id="lfQJAR2KCbR_IpYdrGAc-19" value="page" style="rounded=0;whiteSpace=wrap;html=1;fillColor=#d5e8d4;strokeColor=#82b366;" vertex="1" parent="1">
          <mxGeometry x="670" y="-465" width="80" height="20" as="geometry" />
        </mxCell>
        <mxCell id="lfQJAR2KCbR_IpYdrGAc-23" style="edgeStyle=orthogonalEdgeStyle;rounded=0;orthogonalLoop=1;jettySize=auto;html=1;entryX=0;entryY=0.5;entryDx=0;entryDy=0;" edge="1" parent="1" source="lfQJAR2KCbR_IpYdrGAc-20" target="lfQJAR2KCbR_IpYdrGAc-22">
          <mxGeometry relative="1" as="geometry" />
        </mxCell>
        <mxCell id="lfQJAR2KCbR_IpYdrGAc-20" value="page" style="rounded=0;whiteSpace=wrap;html=1;fillColor=#d5e8d4;strokeColor=#82b366;" vertex="1" parent="1">
          <mxGeometry x="780" y="-465" width="80" height="20" as="geometry" />
        </mxCell>
        <mxCell id="lfQJAR2KCbR_IpYdrGAc-22" value="page" style="rounded=0;whiteSpace=wrap;html=1;fillColor=#d5e8d4;strokeColor=#82b366;" vertex="1" parent="1">
          <mxGeometry x="890" y="-465" width="80" height="20" as="geometry" />
        </mxCell>
        <mxCell id="lfQJAR2KCbR_IpYdrGAc-25" style="edgeStyle=orthogonalEdgeStyle;rounded=0;orthogonalLoop=1;jettySize=auto;html=1;entryX=0;entryY=0.5;entryDx=0;entryDy=0;" edge="1" parent="1" source="lfQJAR2KCbR_IpYdrGAc-26" target="lfQJAR2KCbR_IpYdrGAc-28">
          <mxGeometry relative="1" as="geometry" />
        </mxCell>
        <mxCell id="lfQJAR2KCbR_IpYdrGAc-26" value="page" style="rounded=0;whiteSpace=wrap;html=1;fillColor=#d5e8d4;strokeColor=#82b366;" vertex="1" parent="1">
          <mxGeometry x="660" y="-345" width="80" height="20" as="geometry" />
        </mxCell>
        <mxCell id="lfQJAR2KCbR_IpYdrGAc-27" style="edgeStyle=orthogonalEdgeStyle;rounded=0;orthogonalLoop=1;jettySize=auto;html=1;entryX=0;entryY=0.5;entryDx=0;entryDy=0;" edge="1" parent="1" source="lfQJAR2KCbR_IpYdrGAc-28" target="lfQJAR2KCbR_IpYdrGAc-29">
          <mxGeometry relative="1" as="geometry" />
        </mxCell>
        <mxCell id="lfQJAR2KCbR_IpYdrGAc-28" value="page" style="rounded=0;whiteSpace=wrap;html=1;fillColor=#d5e8d4;strokeColor=#82b366;" vertex="1" parent="1">
          <mxGeometry x="770" y="-345" width="80" height="20" as="geometry" />
        </mxCell>
        <mxCell id="lfQJAR2KCbR_IpYdrGAc-29" value="page" style="rounded=0;whiteSpace=wrap;html=1;fillColor=#d5e8d4;strokeColor=#82b366;" vertex="1" parent="1">
          <mxGeometry x="880" y="-345" width="80" height="20" as="geometry" />
        </mxCell>
        <mxCell id="lfQJAR2KCbR_IpYdrGAc-31" value="" style="endArrow=none;dashed=1;html=1;dashPattern=1 3;strokeWidth=2;rounded=0;" edge="1" parent="1">
          <mxGeometry width="50" height="50" relative="1" as="geometry">
            <mxPoint x="780" y="-370" as="sourcePoint" />
            <mxPoint x="780" y="-430" as="targetPoint" />
          </mxGeometry>
        </mxCell>
        <mxCell id="lfQJAR2KCbR_IpYdrGAc-32" value="" style="endArrow=none;dashed=1;html=1;dashPattern=1 3;strokeWidth=2;rounded=0;" edge="1" parent="1">
          <mxGeometry width="50" height="50" relative="1" as="geometry">
            <mxPoint x="780" y="-230" as="sourcePoint" />
            <mxPoint x="780" y="-290" as="targetPoint" />
          </mxGeometry>
        </mxCell>
        <mxCell id="lfQJAR2KCbR_IpYdrGAc-34" value="pg_data_t:描述一块物理内存" style="text;html=1;strokeColor=none;fillColor=none;align=center;verticalAlign=middle;whiteSpace=wrap;rounded=0;" vertex="1" parent="1">
          <mxGeometry x="270" y="-600" width="170" height="30" as="geometry" />
        </mxCell>
        <mxCell id="lfQJAR2KCbR_IpYdrGAc-35" value="" style="rounded=0;whiteSpace=wrap;html=1;" vertex="1" parent="1">
          <mxGeometry x="320" y="-210" width="310" height="30" as="geometry" />
        </mxCell>
        <mxCell id="lfQJAR2KCbR_IpYdrGAc-36" value="zone: DMA" style="text;html=1;strokeColor=none;fillColor=none;align=center;verticalAlign=middle;whiteSpace=wrap;rounded=0;" vertex="1" parent="1">
          <mxGeometry x="320" y="-210" width="90" height="30" as="geometry" />
        </mxCell>
        <mxCell id="lfQJAR2KCbR_IpYdrGAc-39" style="edgeStyle=orthogonalEdgeStyle;rounded=0;orthogonalLoop=1;jettySize=auto;html=1;entryX=0;entryY=0.5;entryDx=0;entryDy=0;" edge="1" parent="1" source="lfQJAR2KCbR_IpYdrGAc-37" target="UhhKQWs8nvBIN2-aA_jv-40">
          <mxGeometry relative="1" as="geometry" />
        </mxCell>
        <mxCell id="lfQJAR2KCbR_IpYdrGAc-37" value="ALLOC_NOFRAGMENT=1?" style="rhombus;whiteSpace=wrap;html=1;" vertex="1" parent="1">
          <mxGeometry x="1270" y="590" width="190" height="80" as="geometry" />
        </mxCell>
        <mxCell id="lfQJAR2KCbR_IpYdrGAc-40" value="yes" style="text;html=1;strokeColor=none;fillColor=none;align=center;verticalAlign=middle;whiteSpace=wrap;rounded=0;" vertex="1" parent="1">
          <mxGeometry x="1450" y="600" width="60" height="30" as="geometry" />
        </mxCell>
        <mxCell id="lfQJAR2KCbR_IpYdrGAc-41" value="__alloc_pages_direct_compact&lt;br&gt;进行内存规整" style="rounded=0;whiteSpace=wrap;html=1;" vertex="1" parent="1">
          <mxGeometry x="820" y="1040" width="210" height="60" as="geometry" />
        </mxCell>
      </root>
    </mxGraphModel>
  </diagram>
</mxfile>
